<mxfile host="app.diagrams.net" modified="2021-11-12T13:07:47.149Z" agent="5.0 (Windows NT 10.0; Win64; x64) AppleWebKit/537.36 (KHTML, like Gecko) Chrome/95.0.4638.69 Safari/537.36" etag="yVHamgv4AtvBO-WkNoVJ" version="15.6.8" type="github">
  <diagram id="yV3LQ3wNmJyPTBkd8FQZ" name="第 1 页">
    <mxGraphModel dx="2249" dy="761" grid="1" gridSize="10" guides="1" tooltips="1" connect="1" arrows="1" fold="1" page="1" pageScale="1" pageWidth="827" pageHeight="1169" background="#F2F7F2" math="0" shadow="0">
      <root>
        <mxCell id="0" />
        <mxCell id="0PBzpLBy_FoYPidOerjF-148" value="背景" parent="0" />
        <mxCell id="1" value="图1" parent="0" />
        <mxCell id="0PBzpLBy_FoYPidOerjF-1" value="&lt;h2&gt;SSM整合&lt;/h2&gt;" style="text;html=1;align=center;verticalAlign=middle;resizable=0;points=[];autosize=1;strokeColor=none;fillColor=none;" vertex="1" parent="1">
          <mxGeometry x="645" y="10" width="90" height="50" as="geometry" />
        </mxCell>
        <mxCell id="0PBzpLBy_FoYPidOerjF-3" value="&lt;font face=&quot;Verdana&quot; style=&quot;font-size: 16px&quot;&gt;&lt;b&gt;pom.xml&lt;/b&gt;&lt;/font&gt;" style="rounded=1;whiteSpace=wrap;html=1;fillColor=#f5f5f5;fontColor=#333333;strokeColor=#666666;strokeWidth=2;" vertex="1" parent="1">
          <mxGeometry x="640" y="80" width="100" height="30" as="geometry" />
        </mxCell>
        <mxCell id="0PBzpLBy_FoYPidOerjF-9" value="&lt;ul&gt;&lt;li&gt;&lt;font face=&quot;Comic Sans MS&quot; color=&quot;#8a5777&quot; style=&quot;line-height: 1.2&quot;&gt;&lt;b&gt;全局maven工程的依赖管理&lt;/b&gt;&lt;/font&gt;&lt;/li&gt;&lt;/ul&gt;" style="text;strokeColor=#C3ABD0;fillColor=none;html=1;whiteSpace=wrap;verticalAlign=middle;overflow=hidden;fontFamily=Verdana;fontSize=16;rounded=1;glass=0;" vertex="1" parent="1">
          <mxGeometry x="560" y="180" width="260" height="50" as="geometry" />
        </mxCell>
        <mxCell id="0PBzpLBy_FoYPidOerjF-12" value="" style="endArrow=classic;html=1;rounded=0;fontFamily=Comic Sans MS;fontSize=16;fontColor=#8A5777;exitX=0.5;exitY=1;exitDx=0;exitDy=0;entryX=0.5;entryY=0;entryDx=0;entryDy=0;" edge="1" parent="1" source="0PBzpLBy_FoYPidOerjF-3" target="0PBzpLBy_FoYPidOerjF-9">
          <mxGeometry width="50" height="50" relative="1" as="geometry">
            <mxPoint x="440" y="330" as="sourcePoint" />
            <mxPoint x="-120" y="140" as="targetPoint" />
          </mxGeometry>
        </mxCell>
        <mxCell id="0PBzpLBy_FoYPidOerjF-13" value="&lt;font face=&quot;Verdana&quot; style=&quot;font-size: 16px&quot;&gt;&lt;b&gt;web.xml&lt;/b&gt;&lt;/font&gt;" style="rounded=1;whiteSpace=wrap;html=1;fillColor=#f5f5f5;fontColor=#333333;strokeColor=#666666;strokeWidth=2;" vertex="1" parent="1">
          <mxGeometry x="265" y="80" width="90" height="30" as="geometry" />
        </mxCell>
        <mxCell id="0PBzpLBy_FoYPidOerjF-14" value="&lt;ul&gt;&lt;li&gt;&lt;font color=&quot;#8a5777&quot; face=&quot;Comic Sans MS&quot;&gt;&lt;b&gt;指定Servlet,Listener,Filter&lt;/b&gt;&lt;/font&gt;&lt;/li&gt;&lt;li&gt;&lt;font color=&quot;#8a5777&quot; face=&quot;Comic Sans MS&quot;&gt;&lt;b&gt;以及Spring和SpringMVC配置文件的位置&lt;/b&gt;&lt;/font&gt;&lt;/li&gt;&lt;/ul&gt;" style="text;strokeColor=#C3ABD0;fillColor=none;html=1;whiteSpace=wrap;verticalAlign=middle;overflow=hidden;fontFamily=Verdana;fontSize=16;rounded=1;glass=0;" vertex="1" parent="1">
          <mxGeometry x="170" y="150" width="280" height="90" as="geometry" />
        </mxCell>
        <mxCell id="0PBzpLBy_FoYPidOerjF-16" value="" style="endArrow=classic;html=1;rounded=0;fontFamily=Comic Sans MS;fontSize=16;fontColor=#8A5777;exitX=0.5;exitY=1;exitDx=0;exitDy=0;entryX=0.5;entryY=0;entryDx=0;entryDy=0;" edge="1" parent="1" source="0PBzpLBy_FoYPidOerjF-13" target="0PBzpLBy_FoYPidOerjF-14">
          <mxGeometry width="50" height="50" relative="1" as="geometry">
            <mxPoint x="440" y="210" as="sourcePoint" />
            <mxPoint x="490" y="160" as="targetPoint" />
          </mxGeometry>
        </mxCell>
        <mxCell id="0PBzpLBy_FoYPidOerjF-17" value="&lt;font face=&quot;Verdana&quot; style=&quot;font-size: 16px&quot;&gt;&lt;b&gt;springmvc.xml&lt;/b&gt;&lt;/font&gt;" style="rounded=1;whiteSpace=wrap;html=1;fillColor=#f5f5f5;fontColor=#333333;strokeColor=#666666;strokeWidth=2;" vertex="1" parent="1">
          <mxGeometry x="30" y="330" width="170" height="30" as="geometry" />
        </mxCell>
        <mxCell id="0PBzpLBy_FoYPidOerjF-18" value="&lt;font face=&quot;Verdana&quot; style=&quot;font-size: 16px&quot;&gt;&lt;b&gt;applicationContext.xml&lt;/b&gt;&lt;/font&gt;" style="rounded=1;whiteSpace=wrap;html=1;fillColor=#f5f5f5;fontColor=#333333;strokeColor=#666666;strokeWidth=2;" vertex="1" parent="1">
          <mxGeometry x="380" y="340" width="240" height="30" as="geometry" />
        </mxCell>
        <mxCell id="0PBzpLBy_FoYPidOerjF-19" value="" style="endArrow=classic;html=1;rounded=0;fontFamily=Comic Sans MS;fontSize=16;fontColor=#8A5777;exitX=0.538;exitY=1.033;exitDx=0;exitDy=0;exitPerimeter=0;entryX=0.5;entryY=0;entryDx=0;entryDy=0;" edge="1" parent="1" source="0PBzpLBy_FoYPidOerjF-14" target="0PBzpLBy_FoYPidOerjF-17">
          <mxGeometry relative="1" as="geometry">
            <mxPoint x="450" y="260" as="sourcePoint" />
            <mxPoint x="550" y="260" as="targetPoint" />
            <Array as="points" />
          </mxGeometry>
        </mxCell>
        <mxCell id="0PBzpLBy_FoYPidOerjF-20" value="&lt;font color=&quot;#ea6b66&quot;&gt;springMVC配置文件&lt;/font&gt;" style="edgeLabel;resizable=0;html=1;align=center;verticalAlign=middle;rounded=1;glass=0;fontFamily=Comic Sans MS;fontSize=16;fontColor=#8A5777;strokeColor=#C3ABD0;strokeWidth=2;" connectable="0" vertex="1" parent="0PBzpLBy_FoYPidOerjF-19">
          <mxGeometry relative="1" as="geometry">
            <mxPoint x="-10" as="offset" />
          </mxGeometry>
        </mxCell>
        <mxCell id="0PBzpLBy_FoYPidOerjF-21" value="" style="endArrow=classic;html=1;rounded=0;fontFamily=Comic Sans MS;fontSize=16;fontColor=#8A5777;exitX=0.538;exitY=1;exitDx=0;exitDy=0;exitPerimeter=0;entryX=0.5;entryY=0;entryDx=0;entryDy=0;" edge="1" parent="1" source="0PBzpLBy_FoYPidOerjF-14" target="0PBzpLBy_FoYPidOerjF-18">
          <mxGeometry relative="1" as="geometry">
            <mxPoint x="319.8800000000001" y="252.97000000000003" as="sourcePoint" />
            <mxPoint x="115" y="340" as="targetPoint" />
            <Array as="points" />
          </mxGeometry>
        </mxCell>
        <mxCell id="0PBzpLBy_FoYPidOerjF-22" value="&lt;font color=&quot;#ea6b66&quot;&gt;spring配置文件&lt;/font&gt;" style="edgeLabel;resizable=0;html=1;align=center;verticalAlign=middle;rounded=1;glass=0;fontFamily=Comic Sans MS;fontSize=16;fontColor=#8A5777;strokeColor=#C3ABD0;strokeWidth=2;" connectable="0" vertex="1" parent="0PBzpLBy_FoYPidOerjF-21">
          <mxGeometry relative="1" as="geometry">
            <mxPoint x="-10" as="offset" />
          </mxGeometry>
        </mxCell>
        <mxCell id="0PBzpLBy_FoYPidOerjF-23" value="&lt;ul&gt;&lt;li&gt;&lt;font color=&quot;#8a5777&quot; face=&quot;Lucida Console&quot;&gt;&lt;b&gt;主要处理Web层&lt;/b&gt;&lt;/font&gt;&lt;/li&gt;&lt;li&gt;&lt;font color=&quot;#8a5777&quot; face=&quot;Lucida Console&quot;&gt;&lt;b&gt;扫描控制器组件&lt;/b&gt;&lt;/font&gt;&lt;/li&gt;&lt;li&gt;&lt;font color=&quot;#8a5777&quot; face=&quot;Lucida Console&quot;&gt;&lt;b&gt;配置视图解析器&lt;/b&gt;&lt;/font&gt;&lt;/li&gt;&lt;li&gt;&lt;font color=&quot;#8a5777&quot; face=&quot;Lucida Console&quot;&gt;&lt;b&gt;开启注解驱动&lt;/b&gt;&lt;/font&gt;&lt;/li&gt;&lt;li&gt;&lt;font color=&quot;#8a5777&quot; face=&quot;Lucida Console&quot;&gt;&lt;b&gt;开启静态资源采用默认Servlet&lt;/b&gt;&lt;/font&gt;&lt;/li&gt;&lt;/ul&gt;" style="text;strokeColor=#C3ABD0;fillColor=none;html=1;whiteSpace=wrap;verticalAlign=middle;overflow=hidden;fontFamily=Verdana;fontSize=16;rounded=1;glass=0;" vertex="1" parent="1">
          <mxGeometry x="-110" y="410" width="320" height="130" as="geometry" />
        </mxCell>
        <mxCell id="0PBzpLBy_FoYPidOerjF-24" value="" style="endArrow=classic;html=1;rounded=0;fontFamily=Comic Sans MS;fontSize=16;fontColor=#8A5777;exitX=0.5;exitY=1;exitDx=0;exitDy=0;entryX=0.5;entryY=0;entryDx=0;entryDy=0;" edge="1" parent="1" source="0PBzpLBy_FoYPidOerjF-17" target="0PBzpLBy_FoYPidOerjF-23">
          <mxGeometry width="50" height="50" relative="1" as="geometry">
            <mxPoint x="40" y="120" as="sourcePoint" />
            <mxPoint x="40" y="170" as="targetPoint" />
          </mxGeometry>
        </mxCell>
        <mxCell id="0PBzpLBy_FoYPidOerjF-25" value="&lt;ul&gt;&lt;li&gt;&lt;font color=&quot;#8a5777&quot; face=&quot;Lucida Console&quot;&gt;&lt;b&gt;主要处理Service层业务（ioc容器）&lt;/b&gt;&lt;/font&gt;&lt;/li&gt;&lt;li&gt;&lt;font color=&quot;#8a5777&quot; face=&quot;Lucida Console&quot;&gt;&lt;b&gt;扫描组件&lt;/b&gt;&lt;/font&gt;&lt;/li&gt;&lt;li&gt;&lt;font color=&quot;#8a5777&quot; face=&quot;Lucida Console&quot;&gt;&lt;b&gt;配置数据源&lt;/b&gt;&lt;/font&gt;&lt;/li&gt;&lt;li&gt;&lt;font color=&quot;#8a5777&quot; face=&quot;Lucida Console&quot;&gt;&lt;b&gt;配置和mybatis的整合&lt;/b&gt;&lt;/font&gt;&lt;/li&gt;&lt;li&gt;&lt;font color=&quot;#8a5777&quot; face=&quot;Lucida Console&quot;&gt;&lt;b&gt;事务控制的配置&lt;/b&gt;&lt;/font&gt;&lt;/li&gt;&lt;/ul&gt;" style="text;strokeColor=#C3ABD0;fillColor=none;html=1;whiteSpace=wrap;verticalAlign=middle;overflow=hidden;fontFamily=Verdana;fontSize=16;rounded=1;glass=0;" vertex="1" parent="1">
          <mxGeometry x="320" y="410" width="351" height="130" as="geometry" />
        </mxCell>
        <mxCell id="0PBzpLBy_FoYPidOerjF-26" value="" style="endArrow=classic;html=1;rounded=0;fontFamily=Comic Sans MS;fontSize=16;fontColor=#8A5777;exitX=0.5;exitY=1;exitDx=0;exitDy=0;entryX=0.5;entryY=0;entryDx=0;entryDy=0;" edge="1" parent="1" target="0PBzpLBy_FoYPidOerjF-25">
          <mxGeometry width="50" height="50" relative="1" as="geometry">
            <mxPoint x="484" y="370" as="sourcePoint" />
            <mxPoint x="419" y="180" as="targetPoint" />
          </mxGeometry>
        </mxCell>
        <mxCell id="0PBzpLBy_FoYPidOerjF-28" value="" style="endArrow=classic;html=1;rounded=0;fontFamily=Comic Sans MS;fontSize=16;fontColor=#8A5777;exitX=0.5;exitY=1;exitDx=0;exitDy=0;entryX=0.5;entryY=0;entryDx=0;entryDy=0;" edge="1" parent="1" target="0PBzpLBy_FoYPidOerjF-30" source="0PBzpLBy_FoYPidOerjF-25">
          <mxGeometry relative="1" as="geometry">
            <mxPoint x="445.0000000000001" y="510" as="sourcePoint" />
            <mxPoint x="160" y="597.03" as="targetPoint" />
            <Array as="points" />
          </mxGeometry>
        </mxCell>
        <mxCell id="0PBzpLBy_FoYPidOerjF-29" value="&lt;font color=&quot;#ea6b66&quot;&gt;配置数据源&lt;/font&gt;" style="edgeLabel;resizable=0;html=1;align=center;verticalAlign=middle;rounded=1;glass=0;fontFamily=Comic Sans MS;fontSize=16;fontColor=#8A5777;strokeColor=#C3ABD0;strokeWidth=2;" connectable="0" vertex="1" parent="0PBzpLBy_FoYPidOerjF-28">
          <mxGeometry relative="1" as="geometry">
            <mxPoint x="-10" as="offset" />
          </mxGeometry>
        </mxCell>
        <mxCell id="0PBzpLBy_FoYPidOerjF-30" value="&lt;ul&gt;&lt;li&gt;&lt;font face=&quot;Comic Sans MS&quot; color=&quot;#004c99&quot;&gt;指定Druid配置文件.properties位置并进行相应配置&lt;/font&gt;&lt;/li&gt;&lt;/ul&gt;" style="text;strokeColor=#004C99;fillColor=none;html=1;whiteSpace=wrap;verticalAlign=middle;overflow=hidden;fontFamily=Verdana;fontSize=16;rounded=1;glass=0;" vertex="1" parent="1">
          <mxGeometry x="-90" y="640" width="180" height="90" as="geometry" />
        </mxCell>
        <mxCell id="0PBzpLBy_FoYPidOerjF-32" value="" style="endArrow=classic;html=1;rounded=0;fontFamily=Comic Sans MS;fontSize=16;fontColor=#8A5777;exitX=0.5;exitY=1;exitDx=0;exitDy=0;entryX=0.5;entryY=0;entryDx=0;entryDy=0;" edge="1" parent="1" target="0PBzpLBy_FoYPidOerjF-53" source="0PBzpLBy_FoYPidOerjF-25">
          <mxGeometry relative="1" as="geometry">
            <mxPoint x="814" y="600" as="sourcePoint" />
            <mxPoint x="380" y="657.03" as="targetPoint" />
            <Array as="points" />
          </mxGeometry>
        </mxCell>
        <mxCell id="0PBzpLBy_FoYPidOerjF-33" value="&lt;font color=&quot;#ea6b66&quot;&gt;配置Mybatis整合&lt;/font&gt;" style="edgeLabel;resizable=0;html=1;align=center;verticalAlign=middle;rounded=1;glass=0;fontFamily=Comic Sans MS;fontSize=16;fontColor=#8A5777;strokeColor=#C3ABD0;strokeWidth=2;" connectable="0" vertex="1" parent="0PBzpLBy_FoYPidOerjF-32">
          <mxGeometry relative="1" as="geometry">
            <mxPoint x="-10" as="offset" />
          </mxGeometry>
        </mxCell>
        <mxCell id="0PBzpLBy_FoYPidOerjF-54" value="" style="edgeStyle=orthogonalEdgeStyle;rounded=0;orthogonalLoop=1;jettySize=auto;html=1;fontFamily=Comic Sans MS;fontSize=16;fontColor=#EA6B66;entryX=1;entryY=0.5;entryDx=0;entryDy=0;dashed=1;" edge="1" parent="1" source="0PBzpLBy_FoYPidOerjF-34" target="0PBzpLBy_FoYPidOerjF-52">
          <mxGeometry relative="1" as="geometry">
            <Array as="points">
              <mxPoint x="720" y="655" />
              <mxPoint x="720" y="965" />
            </Array>
          </mxGeometry>
        </mxCell>
        <mxCell id="0PBzpLBy_FoYPidOerjF-35" value="" style="endArrow=classic;html=1;rounded=0;fontFamily=Comic Sans MS;fontSize=16;fontColor=#8A5777;exitX=0.5;exitY=1;exitDx=0;exitDy=0;entryX=0.525;entryY=0.005;entryDx=0;entryDy=0;entryPerimeter=0;" edge="1" parent="1" target="0PBzpLBy_FoYPidOerjF-76" source="0PBzpLBy_FoYPidOerjF-25">
          <mxGeometry relative="1" as="geometry">
            <mxPoint x="1274" y="550" as="sourcePoint" />
            <mxPoint x="840" y="607.03" as="targetPoint" />
            <Array as="points" />
          </mxGeometry>
        </mxCell>
        <mxCell id="0PBzpLBy_FoYPidOerjF-36" value="&lt;font color=&quot;#ea6b66&quot;&gt;配置事务控制&lt;/font&gt;" style="edgeLabel;resizable=0;html=1;align=center;verticalAlign=middle;rounded=1;glass=0;fontFamily=Comic Sans MS;fontSize=16;fontColor=#8A5777;strokeColor=#C3ABD0;strokeWidth=2;" connectable="0" vertex="1" parent="0PBzpLBy_FoYPidOerjF-35">
          <mxGeometry relative="1" as="geometry">
            <mxPoint x="-10" as="offset" />
          </mxGeometry>
        </mxCell>
        <mxCell id="0PBzpLBy_FoYPidOerjF-59" value="" style="edgeStyle=orthogonalEdgeStyle;rounded=0;orthogonalLoop=1;jettySize=auto;html=1;fontFamily=Comic Sans MS;fontSize=16;fontColor=#67AB9F;exitX=1;exitY=0.5;exitDx=0;exitDy=0;entryX=0.5;entryY=0;entryDx=0;entryDy=0;dashed=1;" edge="1" parent="1" source="0PBzpLBy_FoYPidOerjF-46" target="0PBzpLBy_FoYPidOerjF-55">
          <mxGeometry relative="1" as="geometry">
            <Array as="points">
              <mxPoint x="690" y="715" />
              <mxPoint x="690" y="830" />
              <mxPoint x="465" y="830" />
            </Array>
          </mxGeometry>
        </mxCell>
        <mxCell id="0PBzpLBy_FoYPidOerjF-61" value="" style="edgeStyle=orthogonalEdgeStyle;rounded=0;orthogonalLoop=1;jettySize=auto;html=1;fontFamily=Comic Sans MS;fontSize=16;fontColor=#67AB9F;dashed=1;" edge="1" parent="1" source="0PBzpLBy_FoYPidOerjF-47" target="0PBzpLBy_FoYPidOerjF-60">
          <mxGeometry relative="1" as="geometry" />
        </mxCell>
        <mxCell id="0PBzpLBy_FoYPidOerjF-52" value="&lt;blockquote style=&quot;margin: 0 0 0 40px ; border: none ; padding: 0px&quot;&gt;&lt;/blockquote&gt;&lt;font&gt;&lt;ol&gt;&lt;li&gt;&lt;font&gt;&lt;span&gt;指定mybatis全局配置文件位置&lt;/span&gt;&lt;/font&gt;&lt;/li&gt;&lt;li&gt;&lt;font&gt;&lt;span&gt;指定数据源&lt;/span&gt;&lt;/font&gt;&lt;/li&gt;&lt;li&gt;&lt;font&gt;&lt;span&gt;指定mapper.xml文件位置&lt;/span&gt;&lt;/font&gt;&lt;/li&gt;&lt;/ol&gt;&lt;/font&gt;&lt;blockquote style=&quot;margin: 0 0 0 40px ; border: none ; padding: 0px&quot;&gt;&lt;/blockquote&gt;" style="rounded=1;whiteSpace=wrap;html=1;glass=0;labelBackgroundColor=none;fontFamily=Comic Sans MS;fontSize=16;fontColor=#395E58;strokeColor=#4D8077;strokeWidth=1;align=left;fillColor=none;dashed=1;" vertex="1" parent="1">
          <mxGeometry x="300" y="930" width="330" height="70" as="geometry" />
        </mxCell>
        <mxCell id="0PBzpLBy_FoYPidOerjF-55" value="&lt;blockquote style=&quot;margin: 0 0 0 40px ; border: none ; padding: 0px&quot;&gt;&lt;/blockquote&gt;&lt;font&gt;&lt;ol&gt;&lt;li&gt;配置属性SqlSessionFactory引用&lt;/li&gt;&lt;/ol&gt;&lt;/font&gt;&lt;blockquote style=&quot;margin: 0 0 0 40px ; border: none ; padding: 0px&quot;&gt;&lt;/blockquote&gt;" style="rounded=1;whiteSpace=wrap;html=1;glass=0;labelBackgroundColor=none;fontFamily=Comic Sans MS;fontSize=16;fontColor=#395E58;strokeColor=#4D8077;strokeWidth=1;align=left;fillColor=none;dashed=1;" vertex="1" parent="1">
          <mxGeometry x="300" y="850" width="330" height="50" as="geometry" />
        </mxCell>
        <mxCell id="0PBzpLBy_FoYPidOerjF-56" value="" style="endArrow=classic;html=1;rounded=0;fontFamily=Comic Sans MS;fontSize=16;fontColor=#67AB9F;exitX=0.5;exitY=1;exitDx=0;exitDy=0;entryX=0.5;entryY=0;entryDx=0;entryDy=0;" edge="1" parent="1" source="0PBzpLBy_FoYPidOerjF-52" target="0PBzpLBy_FoYPidOerjF-58">
          <mxGeometry relative="1" as="geometry">
            <mxPoint x="580" y="910" as="sourcePoint" />
            <mxPoint x="1040" y="955" as="targetPoint" />
          </mxGeometry>
        </mxCell>
        <mxCell id="0PBzpLBy_FoYPidOerjF-57" value="&lt;font color=&quot;#050505&quot; style=&quot;background-color: rgb(230 , 230 , 230)&quot;&gt;mybatis-config.xml&lt;/font&gt;" style="edgeLabel;resizable=0;html=1;align=center;verticalAlign=middle;rounded=0;glass=0;dashed=1;labelBackgroundColor=none;fontFamily=Comic Sans MS;fontSize=16;fontColor=#67AB9F;strokeColor=#4D8077;strokeWidth=1;fillColor=none;" connectable="0" vertex="1" parent="0PBzpLBy_FoYPidOerjF-56">
          <mxGeometry relative="1" as="geometry" />
        </mxCell>
        <mxCell id="0PBzpLBy_FoYPidOerjF-58" value="&lt;blockquote style=&quot;margin: 0 0 0 40px ; border: none ; padding: 0px&quot;&gt;&lt;/blockquote&gt;&lt;font&gt;&lt;ol&gt;&lt;li&gt;一些setting，如命名规则，日志等&lt;/li&gt;&lt;li&gt;配置domain类的别名&lt;/li&gt;&lt;/ol&gt;&lt;/font&gt;&lt;blockquote style=&quot;margin: 0 0 0 40px ; border: none ; padding: 0px&quot;&gt;&lt;/blockquote&gt;" style="rounded=1;whiteSpace=wrap;html=1;glass=0;labelBackgroundColor=none;fontFamily=Comic Sans MS;fontSize=16;fontColor=#395E58;strokeColor=#4D8077;strokeWidth=1;align=left;fillColor=none;dashed=1;" vertex="1" parent="1">
          <mxGeometry x="300" y="1060" width="330" height="50" as="geometry" />
        </mxCell>
        <mxCell id="0PBzpLBy_FoYPidOerjF-60" value="&lt;blockquote style=&quot;margin: 0 0 0 40px ; border: none ; padding: 0px&quot;&gt;&lt;/blockquote&gt;&lt;font&gt;&lt;ol&gt;&lt;li&gt;指定mapper接口所在的包&lt;/li&gt;&lt;li&gt;指定sqlSessionFactory&lt;br&gt;(如果ioc容器中只有一个，可以不写)&lt;/li&gt;&lt;/ol&gt;&lt;/font&gt;&lt;blockquote style=&quot;margin: 0 0 0 40px ; border: none ; padding: 0px&quot;&gt;&lt;/blockquote&gt;" style="rounded=1;whiteSpace=wrap;html=1;glass=0;labelBackgroundColor=none;fontFamily=Comic Sans MS;fontSize=16;fontColor=#395E58;strokeColor=#4D8077;strokeWidth=1;align=left;fillColor=none;dashed=1;" vertex="1" parent="1">
          <mxGeometry x="-90" y="840" width="360" height="80" as="geometry" />
        </mxCell>
        <mxCell id="0PBzpLBy_FoYPidOerjF-64" value="" style="group;dashed=1;fillColor=none;strokeColor=#004C99;rounded=0;" vertex="1" connectable="0" parent="1">
          <mxGeometry x="320" y="620" width="360" height="190" as="geometry" />
        </mxCell>
        <mxCell id="0PBzpLBy_FoYPidOerjF-53" value="&lt;div&gt;&lt;font color=&quot;#8a5777&quot; face=&quot;Comic Sans MS&quot;&gt;&lt;br&gt;&lt;/font&gt;&lt;/div&gt;" style="text;strokeColor=#C3ABD0;fillColor=none;html=1;whiteSpace=wrap;verticalAlign=middle;overflow=hidden;fontFamily=Verdana;fontSize=16;rounded=0;glass=0;dashed=1;" vertex="1" parent="0PBzpLBy_FoYPidOerjF-64">
          <mxGeometry width="360" height="190" as="geometry" />
        </mxCell>
        <mxCell id="0PBzpLBy_FoYPidOerjF-63" value="" style="group" vertex="1" connectable="0" parent="0PBzpLBy_FoYPidOerjF-64">
          <mxGeometry x="10" y="10" width="340" height="171" as="geometry" />
        </mxCell>
        <mxCell id="0PBzpLBy_FoYPidOerjF-34" value="&lt;ul&gt;&lt;li&gt;&lt;font face=&quot;Comic Sans MS&quot; color=&quot;#004c99&quot;&gt;1.创建SqlSessionFactory对象实例&lt;/font&gt;&lt;/li&gt;&lt;/ul&gt;" style="text;strokeColor=#004C99;fillColor=none;html=1;whiteSpace=wrap;verticalAlign=middle;overflow=hidden;fontFamily=Verdana;fontSize=16;rounded=1;glass=0;" vertex="1" parent="0PBzpLBy_FoYPidOerjF-63">
          <mxGeometry width="300" height="50" as="geometry" />
        </mxCell>
        <mxCell id="0PBzpLBy_FoYPidOerjF-46" value="&lt;ul&gt;&lt;li&gt;&lt;font face=&quot;Comic Sans MS&quot; color=&quot;#004c99&quot;&gt;2.创建可批量处理的SqlSession对象实例&lt;/font&gt;&lt;/li&gt;&lt;/ul&gt;" style="text;strokeColor=#004C99;fillColor=none;html=1;whiteSpace=wrap;verticalAlign=middle;overflow=hidden;fontFamily=Verdana;fontSize=16;rounded=1;glass=0;" vertex="1" parent="0PBzpLBy_FoYPidOerjF-63">
          <mxGeometry y="60" width="340" height="50" as="geometry" />
        </mxCell>
        <mxCell id="0PBzpLBy_FoYPidOerjF-47" value="&lt;ul&gt;&lt;li&gt;&lt;font face=&quot;Comic Sans MS&quot; color=&quot;#004c99&quot;&gt;3.创建mapper接口的代理类对象实例&lt;/font&gt;&lt;br&gt;&lt;/li&gt;&lt;/ul&gt;" style="text;strokeColor=#004C99;fillColor=none;html=1;whiteSpace=wrap;verticalAlign=middle;overflow=hidden;fontFamily=Verdana;fontSize=16;rounded=1;glass=0;" vertex="1" parent="0PBzpLBy_FoYPidOerjF-63">
          <mxGeometry y="121" width="340" height="50" as="geometry" />
        </mxCell>
        <mxCell id="0PBzpLBy_FoYPidOerjF-77" value="" style="group" vertex="1" connectable="0" parent="1">
          <mxGeometry x="869.96" y="629.24" width="360" height="190" as="geometry" />
        </mxCell>
        <mxCell id="0PBzpLBy_FoYPidOerjF-76" value="&lt;div&gt;&lt;font color=&quot;#8a5777&quot; face=&quot;Comic Sans MS&quot;&gt;&lt;br&gt;&lt;/font&gt;&lt;/div&gt;" style="text;strokeColor=#C3ABD0;fillColor=none;html=1;whiteSpace=wrap;verticalAlign=middle;overflow=hidden;fontFamily=Verdana;fontSize=16;rounded=0;glass=0;dashed=1;" vertex="1" parent="0PBzpLBy_FoYPidOerjF-77">
          <mxGeometry width="360" height="190" as="geometry" />
        </mxCell>
        <mxCell id="0PBzpLBy_FoYPidOerjF-75" value="" style="group" vertex="1" connectable="0" parent="0PBzpLBy_FoYPidOerjF-77">
          <mxGeometry x="20" y="10" width="320" height="170" as="geometry" />
        </mxCell>
        <mxCell id="0PBzpLBy_FoYPidOerjF-37" value="&lt;ul&gt;&lt;li&gt;&lt;font face=&quot;Comic Sans MS&quot; color=&quot;#004c99&quot;&gt;1.创建事务管理器对象实例&lt;/font&gt;&lt;/li&gt;&lt;/ul&gt;" style="text;strokeColor=#004C99;fillColor=none;html=1;whiteSpace=wrap;verticalAlign=middle;overflow=hidden;fontFamily=Verdana;fontSize=16;rounded=1;glass=0;" vertex="1" parent="0PBzpLBy_FoYPidOerjF-75">
          <mxGeometry width="240" height="50" as="geometry" />
        </mxCell>
        <mxCell id="0PBzpLBy_FoYPidOerjF-67" value="&lt;ul&gt;&lt;li&gt;&lt;font face=&quot;Comic Sans MS&quot; color=&quot;#004c99&quot;&gt;2.配置通知（实际增强的逻辑部分）&lt;/font&gt;&lt;/li&gt;&lt;/ul&gt;" style="text;strokeColor=#004C99;fillColor=none;html=1;whiteSpace=wrap;verticalAlign=middle;overflow=hidden;fontFamily=Verdana;fontSize=16;rounded=1;glass=0;" vertex="1" parent="0PBzpLBy_FoYPidOerjF-75">
          <mxGeometry y="60" width="320" height="50" as="geometry" />
        </mxCell>
        <mxCell id="0PBzpLBy_FoYPidOerjF-68" value="&lt;ul&gt;&lt;li&gt;&lt;font color=&quot;#004c99&quot;&gt;3.配置切入点和切面&lt;/font&gt;&lt;/li&gt;&lt;/ul&gt;" style="text;strokeColor=#004C99;fillColor=none;html=1;whiteSpace=wrap;verticalAlign=middle;overflow=hidden;fontFamily=Verdana;fontSize=16;rounded=1;glass=0;" vertex="1" parent="0PBzpLBy_FoYPidOerjF-75">
          <mxGeometry y="120" width="210" height="50" as="geometry" />
        </mxCell>
        <mxCell id="0PBzpLBy_FoYPidOerjF-78" value="&lt;blockquote style=&quot;margin: 0 0 0 40px ; border: none ; padding: 0px&quot;&gt;&lt;/blockquote&gt;&lt;font&gt;&lt;ol&gt;&lt;li&gt;指定数据源&lt;/li&gt;&lt;/ol&gt;&lt;/font&gt;&lt;blockquote style=&quot;margin: 0 0 0 40px ; border: none ; padding: 0px&quot;&gt;&lt;/blockquote&gt;" style="rounded=1;whiteSpace=wrap;html=1;glass=0;labelBackgroundColor=none;fontFamily=Comic Sans MS;fontSize=16;fontColor=#395E58;strokeColor=#4D8077;strokeWidth=1;align=left;fillColor=none;dashed=1;" vertex="1" parent="1">
          <mxGeometry x="829.96" y="849.24" width="140" height="50" as="geometry" />
        </mxCell>
        <mxCell id="0PBzpLBy_FoYPidOerjF-79" style="edgeStyle=orthogonalEdgeStyle;rounded=0;orthogonalLoop=1;jettySize=auto;html=1;entryX=0;entryY=0.5;entryDx=0;entryDy=0;fontFamily=Comic Sans MS;fontSize=16;fontColor=#004C99;dashed=1;" edge="1" parent="1" source="0PBzpLBy_FoYPidOerjF-37" target="0PBzpLBy_FoYPidOerjF-78">
          <mxGeometry relative="1" as="geometry">
            <Array as="points">
              <mxPoint x="809.96" y="669.24" />
              <mxPoint x="809.96" y="874.24" />
            </Array>
          </mxGeometry>
        </mxCell>
        <mxCell id="0PBzpLBy_FoYPidOerjF-80" value="&lt;blockquote style=&quot;margin: 0 0 0 40px ; border: none ; padding: 0px&quot;&gt;&lt;/blockquote&gt;&lt;font&gt;&lt;ol&gt;&lt;li&gt;指定事务管理器&lt;/li&gt;&lt;/ol&gt;&lt;/font&gt;&lt;blockquote style=&quot;margin: 0 0 0 40px ; border: none ; padding: 0px&quot;&gt;&lt;/blockquote&gt;" style="rounded=1;whiteSpace=wrap;html=1;glass=0;labelBackgroundColor=none;fontFamily=Comic Sans MS;fontSize=16;fontColor=#395E58;strokeColor=#4D8077;strokeWidth=1;align=left;fillColor=none;dashed=1;" vertex="1" parent="1">
          <mxGeometry x="1229.96" y="849.24" width="170" height="50" as="geometry" />
        </mxCell>
        <mxCell id="0PBzpLBy_FoYPidOerjF-81" style="edgeStyle=orthogonalEdgeStyle;rounded=0;orthogonalLoop=1;jettySize=auto;html=1;fontFamily=Comic Sans MS;fontSize=16;fontColor=#004C99;exitX=1;exitY=0.5;exitDx=0;exitDy=0;entryX=0.5;entryY=0;entryDx=0;entryDy=0;dashed=1;" edge="1" parent="1" source="0PBzpLBy_FoYPidOerjF-67" target="0PBzpLBy_FoYPidOerjF-80">
          <mxGeometry relative="1" as="geometry">
            <mxPoint x="1239.96" y="874.24" as="targetPoint" />
            <Array as="points">
              <mxPoint x="1219.96" y="724.24" />
              <mxPoint x="1219.96" y="829.24" />
              <mxPoint x="1314.96" y="829.24" />
            </Array>
          </mxGeometry>
        </mxCell>
        <mxCell id="0PBzpLBy_FoYPidOerjF-82" value="&lt;blockquote style=&quot;margin: 0 0 0 40px ; border: none ; padding: 0px&quot;&gt;&lt;/blockquote&gt;&lt;font&gt;&lt;ol&gt;&lt;li&gt;把通知应用到切入点&lt;/li&gt;&lt;/ol&gt;&lt;/font&gt;&lt;blockquote style=&quot;margin: 0 0 0 40px ; border: none ; padding: 0px&quot;&gt;&lt;/blockquote&gt;" style="rounded=1;whiteSpace=wrap;html=1;glass=0;labelBackgroundColor=none;fontFamily=Comic Sans MS;fontSize=16;fontColor=#395E58;strokeColor=#4D8077;strokeWidth=1;align=left;fillColor=none;dashed=1;" vertex="1" parent="1">
          <mxGeometry x="989.96" y="849.24" width="189" height="50" as="geometry" />
        </mxCell>
        <mxCell id="0PBzpLBy_FoYPidOerjF-83" style="edgeStyle=orthogonalEdgeStyle;rounded=0;orthogonalLoop=1;jettySize=auto;html=1;exitX=1;exitY=0.5;exitDx=0;exitDy=0;fontFamily=Comic Sans MS;fontSize=16;fontColor=#004C99;dashed=1;" edge="1" parent="1" source="0PBzpLBy_FoYPidOerjF-68" target="0PBzpLBy_FoYPidOerjF-82">
          <mxGeometry relative="1" as="geometry" />
        </mxCell>
        <mxCell id="0PBzpLBy_FoYPidOerjF-86" value="" style="edgeStyle=orthogonalEdgeStyle;rounded=0;orthogonalLoop=1;jettySize=auto;html=1;fontFamily=Comic Sans MS;fontSize=16;fontColor=#050505;" edge="1" parent="1" source="0PBzpLBy_FoYPidOerjF-84" target="0PBzpLBy_FoYPidOerjF-85">
          <mxGeometry relative="1" as="geometry" />
        </mxCell>
        <mxCell id="0PBzpLBy_FoYPidOerjF-84" value="&lt;font face=&quot;Verdana&quot; style=&quot;font-size: 16px&quot;&gt;&lt;b&gt;mbg.xml&lt;/b&gt;&lt;/font&gt;" style="rounded=1;whiteSpace=wrap;html=1;fillColor=#f5f5f5;fontColor=#333333;strokeColor=#666666;strokeWidth=2;" vertex="1" parent="1">
          <mxGeometry x="1020" y="80" width="100" height="30" as="geometry" />
        </mxCell>
        <mxCell id="0PBzpLBy_FoYPidOerjF-88" value="" style="edgeStyle=orthogonalEdgeStyle;rounded=0;orthogonalLoop=1;jettySize=auto;html=1;fontFamily=Comic Sans MS;fontSize=16;fontColor=#050505;" edge="1" parent="1" source="0PBzpLBy_FoYPidOerjF-85" target="0PBzpLBy_FoYPidOerjF-87">
          <mxGeometry relative="1" as="geometry" />
        </mxCell>
        <mxCell id="0PBzpLBy_FoYPidOerjF-85" value="&lt;ul&gt;&lt;li&gt;&lt;font color=&quot;#8a5777&quot; face=&quot;Comic Sans MS&quot;&gt;&lt;b&gt;逆向工程配置文件&lt;/b&gt;&lt;/font&gt;&lt;/li&gt;&lt;/ul&gt;" style="text;strokeColor=#C3ABD0;fillColor=none;html=1;whiteSpace=wrap;verticalAlign=middle;overflow=hidden;fontFamily=Verdana;fontSize=16;rounded=1;glass=0;" vertex="1" parent="1">
          <mxGeometry x="980.51" y="170" width="180" height="50" as="geometry" />
        </mxCell>
        <mxCell id="0PBzpLBy_FoYPidOerjF-87" value="&lt;ul&gt;&lt;li&gt;&lt;font color=&quot;#8a5777&quot; face=&quot;Lucida Console&quot;&gt;&lt;b&gt;编码文件格式等属性配置&lt;/b&gt;&lt;/font&gt;&lt;/li&gt;&lt;li&gt;&lt;font color=&quot;#8a5777&quot; face=&quot;Lucida Console&quot;&gt;&lt;b&gt;插件（可用于配置是否实现一些接口、方法）&lt;/b&gt;&lt;/font&gt;&lt;/li&gt;&lt;li&gt;&lt;font color=&quot;#8a5777&quot; face=&quot;Lucida Console&quot;&gt;&lt;b&gt;配置是否生成注释&lt;/b&gt;&lt;/font&gt;&lt;/li&gt;&lt;li&gt;&lt;font color=&quot;#8a5777&quot; face=&quot;Lucida Console&quot;&gt;&lt;b&gt;数据库连接&lt;/b&gt;&lt;/font&gt;&lt;/li&gt;&lt;li&gt;&lt;font color=&quot;#8a5777&quot; face=&quot;Lucida Console&quot;&gt;&lt;b&gt;设置JDBC类型和Java类型的映射&lt;/b&gt;&lt;/font&gt;&lt;/li&gt;&lt;li&gt;&lt;font color=&quot;#8a5777&quot; face=&quot;Lucida Console&quot;&gt;&lt;b&gt;配置生成Domain实体类的位置和构造方法等&lt;/b&gt;&lt;/font&gt;&lt;/li&gt;&lt;li&gt;&lt;font color=&quot;#8a5777&quot; face=&quot;Lucida Console&quot;&gt;&lt;b&gt;配置生成Sql映射文件mapper.xml的位置&lt;/b&gt;&lt;/font&gt;&lt;/li&gt;&lt;li&gt;&lt;font color=&quot;#8a5777&quot; face=&quot;Lucida Console&quot;&gt;&lt;b&gt;配置生成映射器mapper接口的位置&lt;/b&gt;&lt;/font&gt;&lt;/li&gt;&lt;li&gt;&lt;font color=&quot;#8a5777&quot; face=&quot;Lucida Console&quot;&gt;&lt;b&gt;配置表格table信息及其对应的domain实体类名&lt;/b&gt;&lt;/font&gt;&lt;/li&gt;&lt;/ul&gt;" style="text;strokeColor=#C3ABD0;fillColor=none;html=1;whiteSpace=wrap;verticalAlign=middle;overflow=hidden;fontFamily=Verdana;fontSize=16;rounded=1;glass=0;" vertex="1" parent="1">
          <mxGeometry x="867.76" y="280" width="405.5" height="220" as="geometry" />
        </mxCell>
      </root>
    </mxGraphModel>
  </diagram>
</mxfile>
